<?xml version="1.0" encoding="utf-8"?>
<!-- Generator: Adobe Illustrator 25.2.3, SVG Export Plug-In . SVG Version: 6.00 Build 0)  -->
<svg version="1.1" id="레이어_1" xmlns="http://www.w3.org/2000/svg" xmlns:xlink="http://www.w3.org/1999/xlink" x="0px"
	 y="0px" viewBox="0 0 181.9 135.3" style="enable-background:new 0 0 181.9 135.3;" xml:space="preserve">
<style type="text/css">
	.st0{fill:none;stroke:#171715;stroke-width:8;stroke-miterlimit:10;}
	.st1{fill:#171715;}
</style>
<path class="st0" d="M114.9,28.7c0,0,22.6-25.3,33.4-20.6c11,4.7-3.6,49.5-3.6,49.5"/>
<path class="st0" d="M37.4,57.5c0,0-14.6-44.8-3.6-49.5c10.8-4.6,33.4,20.6,33.4,20.6"/>
<path class="st0" d="M109,28.9c-19.9-4-52.2-5.9-69.1,21.7c-14.7,27-10.4,45.5-4.5,54.5C47.2,123,74.7,129.4,98,127.5
	s48-9.9,52.5-37.5C154.9,62.3,134.7,34.1,109,28.9z"/>
<ellipse transform="matrix(1 -9.526674e-03 9.526674e-03 1 -0.6869 0.66)" class="st1" cx="68.9" cy="72.4" rx="6.4" ry="9.6"/>
<ellipse transform="matrix(1 -9.526674e-03 9.526674e-03 1 -0.6851 1.0362)" class="st1" cx="108.4" cy="72.4" rx="6.4" ry="9.6"/>
<polygon class="st1" points="86.6,86.2 84.2,81.9 81.7,77.5 92.3,77.6 89,83.5 "/>
<g>
	<path class="st0" d="M128.2,81.7c0,0,26.1-6.5,51.8,0"/>
	<path class="st0" d="M128.2,92.5c0,0,29.9,2.3,48.3,5"/>
	<path class="st0" d="M48.5,79.3c-13.3-3.1-33-2.8-46.7-1.8"/>
	<path class="st0" d="M48.5,92c0,0-37.8-0.8-46.7,2.1"/>
</g>
<polyline class="st0" points="79.9,91.7 87.1,86.2 95,91.7 "/>
</svg>
